<svg xmlns="http://www.w3.org/2000/svg" width="22" height="25" viewBox="0 0 22 25" fill="none">
    <path d="M20.9799 6.43704C20.967 5.76208 20.9548 5.12445 20.9548 4.50759C20.9548 4.02432 20.5631 3.63252 20.0797 3.63252C16.3374 3.63252 13.488 2.55701 11.113 0.247774C10.7732 -0.0826498 10.2326 -0.0825331 9.89291 0.247774C7.51811 2.55701 4.66925 3.63252 0.927122 3.63252C0.443853 3.63252 0.0520576 4.02432 0.0520576 4.50759C0.0520576 5.12456 0.0399234 5.76243 0.0269724 6.43751C-0.0929697 12.7188 -0.257248 21.3214 10.2163 24.9518C10.3092 24.984 10.4061 25.0001 10.5029 25.0001C10.5997 25.0001 10.6967 24.984 10.7894 24.9518C21.2638 21.3213 21.0998 12.7185 20.9799 6.43704ZM10.503 23.1964C1.52053 19.9333 1.65634 12.7852 1.77687 6.47088C1.7841 6.09192 1.7911 5.72463 1.796 5.36457C5.30093 5.21662 8.1037 4.15453 10.503 2.06441C12.9025 4.15453 15.7058 5.21674 19.2109 5.36457C19.2158 5.72451 19.2228 6.09157 19.2301 6.4703C19.3505 12.7849 19.4862 19.9332 10.503 23.1964Z" fill="#6600CC"/>
    <path d="M13.5166 9.46035L9.29312 13.6836L7.49083 11.8814C7.14909 11.5397 6.595 11.5397 6.25338 11.8814C5.91163 12.2232 5.91163 12.7772 6.25338 13.1189L8.67439 15.54C8.8452 15.7108 9.06922 15.7962 9.29312 15.7962C9.51702 15.7962 9.74103 15.7108 9.91184 15.54L14.754 10.6979C15.0958 10.3562 15.0958 9.80209 14.7541 9.46047C14.4125 9.11872 13.8584 9.11861 13.5166 9.46035Z" fill="#6600CC"/>
</svg>